<svg width="100" height="100" viewBox="0 0 100 100" fill="none" xmlns="http://www.w3.org/2000/svg">
<path d="M50 37.5C50 33.3333 52.975 29.1667 58.9292 29.1667C62.0863 29.1667 65.1142 27.9125 67.3467 25.68C69.5791 23.4476 70.8333 20.4197 70.8333 17.2625V14.5833M33.3333 37.5V35.4167C33.3333 32.1015 34.6503 28.922 36.9945 26.5778C39.3387 24.2336 42.5181 22.9167 45.8333 22.9167C48.0435 22.9167 50.1631 22.0387 51.7259 20.4759C53.2887 18.9131 54.1667 16.7935 54.1667 14.5833V12.5M70.8333 48.3333V62.5C70.8333 69.1304 68.1994 75.4893 63.511 80.1777C58.8226 84.8661 52.4637 87.5 45.8333 87.5H37.5C30.8696 87.5 24.5107 84.8661 19.8223 80.1777C15.1339 75.4893 12.5 69.1304 12.5 62.5V48.3333C12.5 47.6703 12.7634 47.0344 13.2322 46.5656C13.7011 46.0967 14.337 45.8333 15 45.8333H68.3333C68.9964 45.8333 69.6323 46.0967 70.1011 46.5656C70.5699 47.0344 70.8333 47.6703 70.8333 48.3333Z" stroke="white" stroke-width="6.25" stroke-linecap="round" stroke-linejoin="round"/>
<path d="M66.6667 45.8333H77.0834C79.8461 45.8333 82.4956 46.9307 84.4491 48.8842C86.4026 50.8377 87.5001 53.4872 87.5001 56.2499C87.5001 59.0126 86.4026 61.6621 84.4491 63.6156C82.4956 65.5691 79.8461 66.6666 77.0834 66.6666H70.8334" stroke="white" stroke-width="6.25" stroke-linecap="round" stroke-linejoin="round"/>
</svg>
